<mxfile host="app.diagrams.net" agent="Mozilla/5.0 (Windows NT 10.0; Win64; x64) AppleWebKit/537.36 (KHTML, like Gecko) Chrome/138.0.0.0 Safari/537.36" version="28.0.6">
  <diagram name="PÃ¡gina-1" id="0j2aq1Cjmg44tjbxgurR">
    <mxGraphModel grid="1" page="1" gridSize="10" guides="1" tooltips="1" connect="1" arrows="1" fold="1" pageScale="1" pageWidth="827" pageHeight="1169" math="0" shadow="0">
      <root>
        <mxCell id="0" />
        <mxCell id="1" parent="0" />
        <mxCell id="RjOctdtOPhZjsKumqmIZ-1" value="" style="html=1;verticalAlign=bottom;startArrow=oval;startFill=1;endArrow=block;startSize=8;curved=0;rounded=0;entryX=0.436;entryY=0.015;entryDx=0;entryDy=0;entryPerimeter=0;" edge="1" parent="1" target="RjOctdtOPhZjsKumqmIZ-6">
          <mxGeometry width="60" relative="1" as="geometry">
            <mxPoint x="610" y="100" as="sourcePoint" />
            <mxPoint x="610" y="180" as="targetPoint" />
          </mxGeometry>
        </mxCell>
        <mxCell id="RjOctdtOPhZjsKumqmIZ-5" style="edgeStyle=orthogonalEdgeStyle;rounded=0;orthogonalLoop=1;jettySize=auto;html=1;" edge="1" parent="1" source="RjOctdtOPhZjsKumqmIZ-6" target="RjOctdtOPhZjsKumqmIZ-9">
          <mxGeometry relative="1" as="geometry" />
        </mxCell>
        <mxCell id="RjOctdtOPhZjsKumqmIZ-6" value="Ref" style="shape=umlFrame;whiteSpace=wrap;html=1;pointerEvents=0;" vertex="1" parent="1">
          <mxGeometry x="500" y="360" width="250" height="90" as="geometry" />
        </mxCell>
        <mxCell id="RjOctdtOPhZjsKumqmIZ-7" value="ingresa termino" style="text;html=1;align=center;verticalAlign=middle;resizable=0;points=[];autosize=1;strokeColor=none;fillColor=none;" vertex="1" parent="1">
          <mxGeometry x="555" y="398" width="110" height="30" as="geometry" />
        </mxCell>
        <mxCell id="RjOctdtOPhZjsKumqmIZ-8" style="edgeStyle=orthogonalEdgeStyle;rounded=0;orthogonalLoop=1;jettySize=auto;html=1;" edge="1" parent="1" source="RjOctdtOPhZjsKumqmIZ-9">
          <mxGeometry relative="1" as="geometry">
            <mxPoint x="825" y="620" as="targetPoint" />
          </mxGeometry>
        </mxCell>
        <mxCell id="RjOctdtOPhZjsKumqmIZ-9" value="" style="rhombus;whiteSpace=wrap;html=1;" vertex="1" parent="1">
          <mxGeometry x="593.5" y="530" width="63" height="50" as="geometry" />
        </mxCell>
        <mxCell id="RjOctdtOPhZjsKumqmIZ-10" style="edgeStyle=orthogonalEdgeStyle;rounded=0;orthogonalLoop=1;jettySize=auto;html=1;" edge="1" parent="1" source="RjOctdtOPhZjsKumqmIZ-11" target="RjOctdtOPhZjsKumqmIZ-17">
          <mxGeometry relative="1" as="geometry" />
        </mxCell>
        <mxCell id="RjOctdtOPhZjsKumqmIZ-11" value="Sd cuenta&amp;nbsp;" style="shape=umlFrame;whiteSpace=wrap;html=1;pointerEvents=0;" vertex="1" parent="1">
          <mxGeometry x="260" y="620" width="290" height="230" as="geometry" />
        </mxCell>
        <mxCell id="RjOctdtOPhZjsKumqmIZ-12" style="edgeStyle=orthogonalEdgeStyle;rounded=0;orthogonalLoop=1;jettySize=auto;html=1;entryX=0.5;entryY=0;entryDx=0;entryDy=0;" edge="1" parent="1" target="RjOctdtOPhZjsKumqmIZ-17">
          <mxGeometry relative="1" as="geometry">
            <mxPoint x="700" y="665" as="sourcePoint" />
          </mxGeometry>
        </mxCell>
        <mxCell id="RjOctdtOPhZjsKumqmIZ-13" value="Refinar busquetda" style="text;html=1;align=center;verticalAlign=middle;resizable=0;points=[];autosize=1;strokeColor=none;fillColor=none;" vertex="1" parent="1">
          <mxGeometry x="800" y="700" width="120" height="30" as="geometry" />
        </mxCell>
        <mxCell id="RjOctdtOPhZjsKumqmIZ-14" value="Ref" style="shape=umlFrame;whiteSpace=wrap;html=1;pointerEvents=0;" vertex="1" parent="1">
          <mxGeometry x="520" y="1060" width="250" height="90" as="geometry" />
        </mxCell>
        <mxCell id="RjOctdtOPhZjsKumqmIZ-15" value="salir&amp;nbsp;" style="text;html=1;align=center;verticalAlign=middle;resizable=0;points=[];autosize=1;strokeColor=none;fillColor=none;" vertex="1" parent="1">
          <mxGeometry x="618" y="1090" width="50" height="30" as="geometry" />
        </mxCell>
        <mxCell id="RjOctdtOPhZjsKumqmIZ-16" style="edgeStyle=orthogonalEdgeStyle;rounded=0;orthogonalLoop=1;jettySize=auto;html=1;entryX=0.447;entryY=0.013;entryDx=0;entryDy=0;entryPerimeter=0;" edge="1" parent="1" source="RjOctdtOPhZjsKumqmIZ-9" target="RjOctdtOPhZjsKumqmIZ-11">
          <mxGeometry relative="1" as="geometry" />
        </mxCell>
        <mxCell id="RjOctdtOPhZjsKumqmIZ-17" value="" style="rounded=0;whiteSpace=wrap;html=1;" vertex="1" parent="1">
          <mxGeometry x="580" y="940" width="120" height="20" as="geometry" />
        </mxCell>
        <mxCell id="RjOctdtOPhZjsKumqmIZ-18" style="edgeStyle=orthogonalEdgeStyle;rounded=0;orthogonalLoop=1;jettySize=auto;html=1;entryX=0.479;entryY=0.042;entryDx=0;entryDy=0;entryPerimeter=0;" edge="1" parent="1" source="RjOctdtOPhZjsKumqmIZ-17" target="RjOctdtOPhZjsKumqmIZ-14">
          <mxGeometry relative="1" as="geometry" />
        </mxCell>
        <mxCell id="RjOctdtOPhZjsKumqmIZ-19" style="edgeStyle=orthogonalEdgeStyle;rounded=0;orthogonalLoop=1;jettySize=auto;html=1;entryX=0.51;entryY=0.007;entryDx=0;entryDy=0;entryPerimeter=0;" edge="1" parent="1" source="RjOctdtOPhZjsKumqmIZ-14">
          <mxGeometry relative="1" as="geometry">
            <mxPoint x="645.5" y="1280.63" as="targetPoint" />
          </mxGeometry>
        </mxCell>
        <mxCell id="RjOctdtOPhZjsKumqmIZ-20" value="Sd respuesta" style="shape=umlFrame;whiteSpace=wrap;html=1;pointerEvents=0;" vertex="1" parent="1">
          <mxGeometry x="700" y="620" width="360" height="240" as="geometry" />
        </mxCell>
        <mxCell id="RjOctdtOPhZjsKumqmIZ-21" value="mostrar resultado" style="text;html=1;align=center;verticalAlign=middle;resizable=0;points=[];autosize=1;strokeColor=none;fillColor=none;" vertex="1" parent="1">
          <mxGeometry x="354" y="670" width="120" height="30" as="geometry" />
        </mxCell>
        <mxCell id="RjOctdtOPhZjsKumqmIZ-22" value="" style="ellipse;html=1;shape=endState;fillColor=#000000;strokeColor=#ff0000;" vertex="1" parent="1">
          <mxGeometry x="638" y="1280" width="30" height="30" as="geometry" />
        </mxCell>
        <mxCell id="RjOctdtOPhZjsKumqmIZ-23" value="sistema&amp;nbsp;" style="shape=umlLifeline;perimeter=lifelinePerimeter;whiteSpace=wrap;html=1;container=1;dropTarget=0;collapsible=0;recursiveResize=0;outlineConnect=0;portConstraint=eastwest;newEdgeStyle={&quot;curved&quot;:0,&quot;rounded&quot;:0};" vertex="1" parent="1">
          <mxGeometry x="270" y="660" width="70" height="180" as="geometry" />
        </mxCell>
        <mxCell id="RjOctdtOPhZjsKumqmIZ-24" value="usuario" style="shape=umlLifeline;perimeter=lifelinePerimeter;whiteSpace=wrap;html=1;container=1;dropTarget=0;collapsible=0;recursiveResize=0;outlineConnect=0;portConstraint=eastwest;newEdgeStyle={&quot;curved&quot;:0,&quot;rounded&quot;:0};" vertex="1" parent="1">
          <mxGeometry x="474" y="650" width="70" height="180" as="geometry" />
        </mxCell>
        <mxCell id="RjOctdtOPhZjsKumqmIZ-27" value="" style="html=1;points=[[0,0,0,0,5],[0,1,0,0,-5],[1,0,0,0,5],[1,1,0,0,-5]];perimeter=orthogonalPerimeter;outlineConnect=0;targetShapes=umlLifeline;portConstraint=eastwest;newEdgeStyle={&quot;curved&quot;:0,&quot;rounded&quot;:0};" vertex="1" parent="RjOctdtOPhZjsKumqmIZ-24">
          <mxGeometry x="30" y="60" width="10" height="80" as="geometry" />
        </mxCell>
        <mxCell id="RjOctdtOPhZjsKumqmIZ-25" value="cliente" style="shape=umlLifeline;perimeter=lifelinePerimeter;whiteSpace=wrap;html=1;container=1;dropTarget=0;collapsible=0;recursiveResize=0;outlineConnect=0;portConstraint=eastwest;newEdgeStyle={&quot;curved&quot;:0,&quot;rounded&quot;:0};" vertex="1" parent="1">
          <mxGeometry x="710" y="660" width="70" height="180" as="geometry" />
        </mxCell>
        <mxCell id="RjOctdtOPhZjsKumqmIZ-26" value="usuario" style="shape=umlLifeline;perimeter=lifelinePerimeter;whiteSpace=wrap;html=1;container=1;dropTarget=0;collapsible=0;recursiveResize=0;outlineConnect=0;portConstraint=eastwest;newEdgeStyle={&quot;curved&quot;:0,&quot;rounded&quot;:0};" vertex="1" parent="1">
          <mxGeometry x="940" y="660" width="70" height="180" as="geometry" />
        </mxCell>
        <mxCell id="RjOctdtOPhZjsKumqmIZ-30" value="" style="html=1;points=[[0,0,0,0,5],[0,1,0,0,-5],[1,0,0,0,5],[1,1,0,0,-5]];perimeter=orthogonalPerimeter;outlineConnect=0;targetShapes=umlLifeline;portConstraint=eastwest;newEdgeStyle={&quot;curved&quot;:0,&quot;rounded&quot;:0};" vertex="1" parent="RjOctdtOPhZjsKumqmIZ-26">
          <mxGeometry x="30" y="60" width="10" height="80" as="geometry" />
        </mxCell>
        <mxCell id="RjOctdtOPhZjsKumqmIZ-28" value="" style="html=1;verticalAlign=bottom;startArrow=oval;endArrow=block;startSize=8;curved=0;rounded=0;entryX=0;entryY=0;entryDx=0;entryDy=5;" edge="1" parent="1" target="RjOctdtOPhZjsKumqmIZ-27">
          <mxGeometry relative="1" as="geometry">
            <mxPoint x="354" y="715" as="sourcePoint" />
          </mxGeometry>
        </mxCell>
        <mxCell id="RjOctdtOPhZjsKumqmIZ-29" value="" style="html=1;verticalAlign=bottom;startArrow=oval;endArrow=block;startSize=8;curved=0;rounded=0;" edge="1" parent="1" target="RjOctdtOPhZjsKumqmIZ-26">
          <mxGeometry relative="1" as="geometry">
            <mxPoint x="790" y="740" as="sourcePoint" />
            <mxPoint x="940" y="740" as="targetPoint" />
          </mxGeometry>
        </mxCell>
      </root>
    </mxGraphModel>
  </diagram>
</mxfile>
